<svg width="440" height="388" viewBox="0 0 440 388" fill="none" xmlns="http://www.w3.org/2000/svg">
<path d="M127.091 37.375H89.7273V0H127.091V37.375ZM313.909 37.375H351.273V0H313.909V37.375ZM426 149.5V261.625H388.636V186.875H351.273V261.625H313.909V224.25H127.091V261.625H89.7273V186.875H52.3636V261.625H15V149.5H52.3636V112.125H89.7273V74.75H127.091V37.375H164.455V74.75H276.545V37.375H313.909V74.75H351.273V112.125H388.636V149.5H426ZM276.545 112.125V149.5H313.909V112.125H276.545ZM127.091 149.5H164.455V112.125H127.091V149.5ZM201.818 261.625H127.091V299H201.818V261.625ZM313.909 261.625H239.182V299H313.909V261.625Z" fill="white"/>
<path d="M127.091 37.375H89.7273V0H127.091V37.375ZM313.909 37.375H351.273V0H313.909V37.375ZM426 149.5V261.625H388.636V186.875H351.273V261.625H313.909V224.25H127.091V261.625H89.7273V186.875H52.3636V261.625H15V149.5H52.3636V112.125H89.7273V74.75H127.091V37.375H164.455V74.75H276.545V37.375H313.909V74.75H351.273V112.125H388.636V149.5H426ZM276.545 112.125V149.5H313.909V112.125H276.545ZM127.091 149.5H164.455V112.125H127.091V149.5ZM201.818 261.625H127.091V299H201.818V261.625ZM313.909 261.625H239.182V299H313.909V261.625Z" fill="white"/>
<path d="M0 383V348H30V353H35V368H30V373H10V383H0ZM10 368H25V353H10V368ZM40 383V348H70V353H75V368H65V373H70V378H75V383H60V378H55V373H50V383H40ZM50 368H60V363H65V353H50V368ZM80 383V348H115V353H90V363H110V368H90V378H115V383H80ZM125 383V378H120V373H130V378H145V368H125V363H120V353H125V348H150V353H155V358H145V353H130V363H150V368H155V378H150V383H125ZM165 383V378H160V373H170V378H185V368H165V363H160V353H165V348H190V353H195V358H185V353H170V363H190V368H195V378H190V383H165ZM245 383V378H240V373H250V378H265V368H245V363H240V353H245V348H270V353H275V358H265V353H250V363H270V368H275V378H270V383H245ZM295 383V353H285V348H315V353H305V383H295ZM320 383V358H325V353H330V348H345V353H350V358H355V383H345V373H330V383H320ZM330 368H345V358H340V353H335V358H330V368ZM360 383V348H390V353H395V368H385V373H390V378H395V383H380V378H375V373H370V383H360ZM370 368H380V363H385V353H370V368ZM415 383V353H405V348H435V353H425V383H415Z" fill="white"/>
</svg>
