<svg width="1000" height="1000" viewBox="0 0 1000 1000" fill="none" xmlns="http://www.w3.org/2000/svg">
<path fill-rule="evenodd" clip-rule="evenodd" d="M345.971 72.4839C268.194 112.045 158.531 167.44 102.282 195.58L0 246.745L0.0131049 499.725L0.0261848 752.705L48.8215 776.866C75.6632 790.157 99.1873 801.027 101.105 801.027C103.015 801.027 104.645 689.107 104.71 552.311L104.834 303.594L145.607 283.14C168.032 271.889 256.494 227.512 342.195 184.523L498.011 106.36L608.826 161.493C669.766 191.817 718.286 218.525 716.631 220.844C714.982 223.163 689.233 237.262 659.401 252.179C629.575 267.091 544.064 310.086 469.389 347.721L333.61 416.15V667.675V919.2L385.959 944.964L438.307 970.734V721.421V472.107L515.194 432.921C557.485 411.369 634.778 372.371 686.962 346.254C895.015 242.14 936.724 219.872 931.377 215.796C916 204.068 503.259 -0.471035 495.917 0.000815113C491.225 0.302117 423.748 32.9167 345.971 72.4839ZM418.677 204.477C370.091 229.207 292.805 268.023 246.928 290.735L163.524 332.019L163.497 582.992L163.478 833.966L213.994 859.832C241.778 874.056 265.086 885.193 265.793 884.579C269.64 881.224 274.097 713.536 274.384 561.168L274.718 386.691L335.246 356.015C368.54 339.148 442.888 301.627 500.471 272.634C558.054 243.646 607.622 217.945 610.625 215.523C614.728 212.209 531.717 166.615 510.43 160.487C508.552 159.947 467.262 179.742 418.677 204.477ZM948.705 274.163C921.713 287.767 809.078 344.344 698.414 399.874L497.199 500.845V750.425C497.199 887.688 498.547 1000 500.19 1000C503.088 1000 699.428 901.986 899.628 800.595L997.781 750.886L999.515 585.511C1000.47 494.557 999.463 420.135 997.271 420.135C995.085 420.135 920.037 456.587 830.502 501.146L667.705 582.156L667.522 640.893L667.332 699.624L688.598 688.328C753.883 653.639 880.325 590.684 884.709 590.684C887.516 590.684 889.813 614.697 889.813 644.043V697.402L845.644 720.045C821.347 732.495 761.723 762.534 713.137 786.792C664.551 811.055 622.587 832.004 619.891 833.357C617.195 834.704 614.983 773.131 614.983 696.521V557.239L675.511 526.597C708.805 509.742 793.459 467.15 863.638 431.943C933.818 396.742 993.561 366.026 996.394 363.69C999.234 361.353 1000.71 334.685 999.666 304.43L997.781 249.417L948.705 274.163Z" fill="url(#paint0_linear_23_4)"/>
<defs>
<linearGradient id="paint0_linear_23_4" x1="0" y1="500" x2="1000" y2="500" gradientUnits="userSpaceOnUse">
<stop stop-color="#1A2980"/>
<stop offset="1" stop-color="#26D0CE"/>
</linearGradient>
</defs>
</svg>
